<?xml version="1.0" encoding="iso-8859-1"?>
<!-- Generator: Adobe Illustrator 19.0.0, SVG Export Plug-In . SVG Version: 6.00 Build 0)  -->
<svg version="1.1" id="Capa_1" xmlns="http://www.w3.org/2000/svg" xmlns:xlink="http://www.w3.org/1999/xlink" x="0px" y="0px"
	 viewBox="0 0 496 496" style="enable-background:new 0 0 496 496;" xml:space="preserve">
<g>
	<g>
		<g>
			<rect x="112" y="448" width="64" height="16"/>
			<path d="M288,96V40c0-22.056-17.944-40-40-40H40C17.944,0,0,17.944,0,40v416c0,22.056,17.944,40,40,40h208
				c22.056,0,40-17.944,40-40v-72h208V96H288z M16,40c0-13.232,10.768-24,24-24h208c13.232,0,24,10.768,24,24v8H16V40z M272,456
				c0,13.232-10.768,24-24,24H40c-13.232,0-24-10.768-24-24v-24h256V456z M272,416H16V64h256v32H128v288h144V416z M240,160v-16h48
				v80h-16v-64H240z M224,112v80h-80v-80H224z M144,288h80v80h-80V288z M480,368H240v-96h-96v-64h96v-32h16v64h48V128h-64v-16h144
				v16h-64v48h64v32h96V368z M384,144v16h-48v-16H384z M480,192h-80v-80h80V192z"/>
			<path d="M208,128h-48v48h48V128z M192,160h-16v-16h16V160z"/>
			<path d="M464,128h-48v48h48V128z M448,160h-16v-16h16V160z"/>
			<path d="M160,352h48v-48h-48V352z M176,320h16v16h-16V320z"/>
			<path d="M384,288h32v64h48V240h-80V288z M400,256h48v80h-16v-64h-32V256z"/>
			<path d="M288,304h-32v48h80v-96h-48V304z M304,272h16v64h-48v-16h32V272z"/>
			<path d="M352,352h48v-48h-48V352z M368,320h16v16h-16V320z"/>
			<rect x="160" y="240" width="80" height="16"/>
			<path d="M368,192h-48v48h48V192z M352,224h-16v-16h16V224z"/>
			<rect x="352" y="256" width="16" height="32"/>
			<rect x="32" y="96" width="16" height="256"/>
			<rect x="32" y="368" width="16" height="16"/>
		</g>
	</g>
</g>
<g>
</g>
<g>
</g>
<g>
</g>
<g>
</g>
<g>
</g>
<g>
</g>
<g>
</g>
<g>
</g>
<g>
</g>
<g>
</g>
<g>
</g>
<g>
</g>
<g>
</g>
<g>
</g>
<g>
</g>
</svg>
